<svg width="76" height="76" viewBox="0 0 76 76" fill="none" xmlns="http://www.w3.org/2000/svg">
<path d="M50.2122 30.8156C20.6213 20.3966 40.5739 7.91535 50.6162 2.99313C50.7535 2.92601 50.7069 2.71429 50.5549 2.71429H43.3909C42.258 2.71429 41.1383 2.98445 40.1023 3.50616C28.7258 9.23539 5.78738 23.1744 24.3188 34.865C45.5701 48.2709 22.7872 65.7768 10.864 73.2857H57.6172C63.8695 64.0911 76.8244 40.1856 50.2122 30.8156Z" fill="#665E68"/>
<path d="M10.864 73.2857H21.1351C33.3851 64.5859 52.1338 47.3633 32.2214 33.9768C15.6007 22.8033 32.3382 9.70225 44.1744 2.71429H43.3909C42.2578 2.71429 41.1383 2.98445 40.1023 3.50616C28.7258 9.23539 5.78738 23.1744 24.3188 34.865C45.5701 48.2709 22.7872 65.7768 10.864 73.2857Z" fill="#554E56"/>
<path d="M32.89 12.5473C32.6671 12.5477 32.4501 12.4739 32.2713 12.3369C32.0924 12.1999 31.9613 12.007 31.8975 11.7871C31.8336 11.5671 31.8404 11.3317 31.9169 11.1161C31.9933 10.9004 32.1354 10.716 32.3217 10.5902C32.7792 10.2812 33.0669 10.1118 33.0789 10.1047C33.3171 9.96586 33.5991 9.92995 33.863 10.0049C34.1269 10.0798 34.3512 10.2595 34.4868 10.5045C34.6224 10.7495 34.6582 11.0399 34.5863 11.312C34.5145 11.5842 34.3409 11.8159 34.1035 11.9564C34.0966 11.9604 33.8504 12.1062 33.4563 12.3725C33.2882 12.4866 33.0912 12.5473 32.89 12.5473Z" fill="#DFEBFA"/>
<path d="M42.7383 63.6283C42.537 63.6283 42.3399 63.568 42.1715 63.4544C42.0031 63.3408 41.8705 63.179 41.79 62.9889C41.7095 62.7987 41.6847 62.5885 41.7185 62.384C41.7523 62.1796 41.8432 61.9897 41.9803 61.8377C42.3527 61.4242 42.7167 61.0027 43.0718 60.5734C43.1599 60.4668 43.2675 60.3792 43.3885 60.3154C43.5095 60.2518 43.6414 60.2132 43.7769 60.2021C43.9122 60.1908 44.0484 60.2073 44.1778 60.2504C44.307 60.2934 44.4267 60.3624 44.5301 60.4532C44.6335 60.544 44.7186 60.6547 44.7805 60.7794C44.8422 60.904 44.8797 61.04 44.8905 61.1795C44.9013 61.319 44.8854 61.4594 44.8436 61.5925C44.8018 61.7256 44.7349 61.849 44.6468 61.9555C44.2725 62.4079 43.8891 62.8519 43.4968 63.2874C43.4 63.3952 43.2827 63.4811 43.1522 63.5397C43.0216 63.5984 42.8806 63.6285 42.7383 63.6283ZM47.1224 57.6263C46.9411 57.6261 46.7629 57.5769 46.6058 57.4835C46.4488 57.39 46.3184 57.2556 46.2276 57.0938C46.1369 56.9321 46.089 56.7486 46.0888 56.5617C46.0886 56.3748 46.1361 56.1912 46.2265 56.0292C46.4941 55.5506 46.7441 55.0619 46.9762 54.564C47.0945 54.3091 47.3064 54.113 47.5651 54.019C47.8239 53.9249 48.1082 53.9407 48.3557 54.0627C48.6031 54.1845 48.7934 54.4029 48.8848 54.6694C48.976 54.936 48.9608 55.229 48.8424 55.484C48.5879 56.0303 48.3137 56.5665 48.02 57.0915C47.9293 57.2543 47.7986 57.3893 47.6409 57.4832C47.4834 57.5771 47.3045 57.6265 47.1224 57.6263ZM49.4505 50.5585C49.3076 50.5588 49.1664 50.5284 49.0354 50.4695C48.9046 50.4107 48.7869 50.3246 48.6899 50.2164C48.593 50.1084 48.5187 49.9808 48.4719 49.8418C48.4251 49.7027 48.4069 49.5552 48.4182 49.4085C48.4404 49.121 48.4514 48.8325 48.4514 48.5505C48.4515 48.3111 48.4435 48.0718 48.4274 47.8331C48.4092 47.5518 48.5 47.2745 48.68 47.062C48.8598 46.8494 49.1141 46.719 49.3872 46.6992C49.6601 46.6795 49.9296 46.7721 50.1366 46.9567C50.3434 47.1412 50.471 47.4028 50.4911 47.684C50.5105 47.9699 50.5204 48.2614 50.5202 48.5508C50.5202 48.8884 50.5068 49.2338 50.4803 49.5769C50.4599 49.844 50.3426 50.0933 50.1516 50.2752C49.9608 50.457 49.7106 50.5583 49.4505 50.5585ZM47.6434 43.4205C47.4722 43.4208 47.3038 43.3772 47.153 43.2937C47.0023 43.2103 46.874 43.0896 46.7795 42.9425C46.4928 42.4975 46.1793 42.0712 45.8409 41.6663C45.6672 41.4511 45.5827 41.1742 45.6055 40.8953C45.6283 40.6164 45.7565 40.358 45.9627 40.1757C46.169 39.9934 46.4363 39.9021 46.7073 39.9212C46.9784 39.9405 47.2312 40.0688 47.4112 40.2784C47.8054 40.7507 48.1709 41.2477 48.5053 41.7667C48.6083 41.9272 48.6672 42.1136 48.6758 42.3059C48.6844 42.498 48.6422 42.6893 48.5539 42.8588C48.4655 43.0284 48.3342 43.1702 48.1739 43.269C48.0136 43.368 47.8303 43.4204 47.6434 43.4205ZM42.3563 38.3118C42.1577 38.3119 41.9633 38.2528 41.7967 38.1416C41.3413 37.8396 40.8775 37.5513 40.4059 37.2771C40.2877 37.2082 40.1837 37.116 40.1001 37.0057C40.0164 36.8955 39.9546 36.7693 39.9182 36.6345C39.8819 36.4996 39.8717 36.3587 39.8883 36.2198C39.9047 36.0809 39.9477 35.9467 40.0145 35.8248C40.0814 35.703 40.1708 35.5959 40.2779 35.5097C40.3848 35.4235 40.5072 35.3599 40.6382 35.3224C40.769 35.285 40.9058 35.2745 41.0406 35.2915C41.1755 35.3084 41.3058 35.3527 41.424 35.4215C41.9305 35.7161 42.4287 36.0258 42.9178 36.3502C43.1056 36.4749 43.2491 36.6589 43.327 36.8747C43.4047 37.0906 43.4126 37.3267 43.3494 37.5475C43.2863 37.7683 43.1553 37.9621 42.9763 38.0998C42.7973 38.2376 42.5797 38.3119 42.3563 38.3118ZM35.8801 34.8546C35.7178 34.8546 35.5577 34.8151 35.4131 34.7393C34.9003 34.4718 34.3925 34.1941 33.8899 33.9067C33.7713 33.8385 33.6667 33.7471 33.5823 33.6374C33.4979 33.5277 33.4353 33.4021 33.398 33.2674C33.3608 33.1329 33.3497 32.9921 33.3651 32.853C33.3807 32.714 33.4228 32.5795 33.4888 32.4571C33.5549 32.3348 33.6435 32.2271 33.75 32.1401C33.8564 32.0531 33.9784 31.9885 34.1091 31.9501C34.2397 31.9118 34.3765 31.9003 34.5114 31.9163C34.6464 31.9324 34.777 31.9757 34.8956 32.0437C35.3749 32.318 35.8593 32.5828 36.3485 32.8379C36.5562 32.9462 36.7223 33.1234 36.82 33.341C36.9179 33.5585 36.9416 33.8038 36.8875 34.0369C36.8333 34.2701 36.7044 34.4777 36.5216 34.6261C36.3388 34.7744 36.1127 34.855 35.8801 34.8546ZM29.7504 30.8029C29.5046 30.803 29.2668 30.7128 29.08 30.5483C28.6269 30.1517 28.1924 29.7333 27.7779 29.2944C27.6833 29.1938 27.609 29.0751 27.5589 28.9451C27.5089 28.8149 27.4844 28.6758 27.4865 28.5359C27.4886 28.396 27.5175 28.2578 27.5715 28.1294C27.6255 28.001 27.7035 27.8847 27.8011 27.7874C27.8987 27.69 28.0139 27.6134 28.1403 27.5619C28.2665 27.5104 28.4014 27.4851 28.5372 27.4872C28.6731 27.4895 28.8072 27.5193 28.9318 27.5749C29.0565 27.6305 29.1693 27.7109 29.2637 27.8115C29.6325 28.2016 30.019 28.5736 30.4219 28.9262C30.583 29.0676 30.6982 29.2565 30.7518 29.4674C30.8054 29.6785 30.7948 29.9013 30.7217 30.1058C30.6484 30.3105 30.5161 30.4871 30.3424 30.6116C30.1687 30.7364 29.9621 30.803 29.7504 30.8029ZM25.7457 24.6792C25.5086 24.6788 25.2789 24.5946 25.0947 24.4406C24.9107 24.2865 24.7835 24.0721 24.7347 23.8331C24.6018 23.1847 24.5433 22.5224 24.5601 21.86C24.5759 21.2715 25.053 20.8101 25.6225 20.8238C25.7584 20.8276 25.892 20.8589 26.0161 20.9159C26.1401 20.9731 26.2521 21.0548 26.3455 21.1564C26.4388 21.2581 26.5118 21.3776 26.5604 21.5083C26.609 21.639 26.6319 21.7784 26.6283 21.9183C26.6158 22.4134 26.6596 22.9085 26.759 23.3931C26.8156 23.6697 26.7632 23.9581 26.6135 24.1949C26.4637 24.4316 26.2287 24.5975 25.9603 24.6558C25.8897 24.6713 25.8178 24.6792 25.7457 24.6792ZM27.5479 17.6228C27.3573 17.6227 27.1705 17.5683 27.008 17.4657C26.8456 17.3631 26.7136 17.2162 26.6271 17.0413C26.5406 16.8664 26.5026 16.6703 26.5174 16.4744C26.5322 16.2787 26.5991 16.091 26.7109 15.932C27.0632 15.4328 27.4413 14.9536 27.8435 14.4961C28.0282 14.2902 28.2844 14.1678 28.5562 14.1552C28.8282 14.1426 29.0939 14.2408 29.296 14.4287C29.4981 14.6166 29.6201 14.879 29.6357 15.1589C29.6512 15.4389 29.559 15.7139 29.3792 15.9244C29.0269 16.3251 28.6956 16.745 28.3867 17.1822C28.2908 17.3188 28.1647 17.43 28.0188 17.5067C27.8731 17.5832 27.7116 17.6231 27.5479 17.6228Z" fill="#DFEBFA"/>
<path d="M38.0009 68.1564C37.7843 68.1565 37.573 68.0867 37.397 67.9564C37.221 67.8262 37.0891 67.6423 37.02 67.4307C36.9508 67.2192 36.9479 66.9906 37.0116 66.7773C37.0752 66.5639 37.2024 66.3765 37.375 66.2415C37.375 66.2415 37.6043 66.0617 37.9863 65.7362C38.0908 65.6464 38.2116 65.5788 38.3417 65.5371C38.4717 65.4955 38.6084 65.4807 38.744 65.4937C38.8796 65.5066 39.0113 65.547 39.1319 65.6126C39.2522 65.6781 39.3589 65.7674 39.4456 65.8756C39.5325 65.9838 39.5976 66.1083 39.6375 66.2426C39.6774 66.3766 39.6913 66.5177 39.6781 66.6573C39.6651 66.797 39.6253 66.9325 39.5613 67.0563C39.4972 67.1801 39.4101 67.2897 39.3048 67.3786C38.8857 67.736 38.636 67.9314 38.6256 67.9395C38.4461 68.0804 38.2266 68.1567 38.0009 68.1564Z" fill="#DFEBFA"/>
<path d="M52.5798 28.2602C24.3804 19.2808 40.6508 9.05567 51.0914 3.78872C51.5793 3.54268 51.4241 2.71429 50.8904 2.71429H50.5024C40.6809 7.42852 19.3564 20.1938 49.5234 30.8156C76.1355 40.1856 63.1807 64.0911 56.9284 73.2857H62.2272C63.5538 73.2857 64.7725 72.4569 65.3991 71.1273C71.4064 58.3836 77.0127 36.0403 52.5798 28.2602Z" fill="#FFD301"/>
<path d="M24.5945 34.8649C10.8937 26.2219 19.5854 16.3497 29.789 9.47467C18.374 16.07 5.28266 26.9097 20.6283 36.5901C38.6017 47.9285 19.7477 62.1994 6.01176 70.8745C4.99128 71.5193 5.39531 73.2857 6.5628 73.2857H11.1396C23.0628 65.7768 45.8457 48.2709 24.5945 34.8649Z" fill="#FFC20C"/>
<mask id="mask0_43520_147" style="mask-type:luminance" maskUnits="userSpaceOnUse" x="39" y="13" width="33" height="34">
<path d="M71.9285 13.5715H39.3571V46.1429H71.9285V13.5715Z" fill="white"/>
</mask>
<g mask="url(#mask0_43520_147)">
<path d="M55.6428 13.5715C46.692 13.5715 39.3571 20.9064 39.3571 29.8572C39.3571 38.808 46.692 46.1429 55.6428 46.1429C64.5935 46.1429 71.9285 38.808 71.9285 29.8572C71.9285 20.9064 64.5935 13.5715 55.6428 13.5715Z" fill="#FF3636"/>
<path d="M71.9283 29.8572C71.9283 38.808 64.5933 46.1429 55.6426 46.1429V13.5715C64.5933 13.5715 71.9283 20.9064 71.9283 29.8572Z" fill="#F40000"/>
<path d="M46.1001 27.9488H65.1848V31.7656H46.1001V27.9488Z" fill="#E7E7E7"/>
<path d="M55.6426 27.9488H65.1849V31.7656H55.6426V27.9488Z" fill="#D3D3D8"/>
</g>
</svg>
