<svg width="34" height="84" viewBox="0 0 34 84" fill="none" xmlns="http://www.w3.org/2000/svg">
<mask id="mask0_43520_210" style="mask-type:luminance" maskUnits="userSpaceOnUse" x="4" y="4" width="76" height="76">
<path d="M80 4H4V80H80V4Z" fill="white"/>
</mask>
<g mask="url(#mask0_43520_210)">
<path d="M16.7233 27.1197H10.4836C9.25395 27.1197 8.25704 26.1229 8.25704 24.8931C8.25704 23.6637 9.25395 22.6666 10.4836 22.6666H16.7233C17.953 22.6666 18.9499 23.6637 18.9499 24.8931C18.9499 26.1229 17.953 27.1197 16.7233 27.1197ZM18.2077 36.0159H6.22657C4.99691 36.0159 4 35.0191 4 33.7893C4 32.5598 4.99691 31.5628 6.22657 31.5628H18.2077C19.4373 31.5628 20.4343 32.5598 20.4343 33.7893C20.4343 35.0191 19.4373 36.0159 18.2077 36.0159ZM18.6425 44.9222H10.8069C9.57724 44.9222 8.58034 43.9254 8.58034 42.6956C8.58034 41.4661 9.57724 40.469 10.8069 40.469H18.6423C19.872 40.469 20.8689 41.4661 20.8689 42.6956C20.869 43.9254 19.8722 44.9222 18.6425 44.9222Z" fill="#AEDCFE"/>
<path d="M31.3514 29.8496C31.0333 29.5333 30.7811 29.1571 30.6094 28.7427C30.4377 28.3284 30.3499 27.884 30.3512 27.4354C30.3499 26.9869 30.4376 26.5426 30.6092 26.1283C30.7809 25.7139 31.033 25.3378 31.3511 25.0215L40.8931 15.4795C41.5379 14.8347 42.3949 14.4794 43.3073 14.4796C43.7557 14.4784 44.1999 14.566 44.6142 14.7375C45.0285 14.909 45.4046 15.1611 45.7209 15.4789L51.2852 21.0432C52.6162 22.3746 52.6162 24.5403 51.2852 25.8715C49.9542 27.2025 47.7882 27.2025 46.457 25.8715L43.3073 22.7215L36.1796 29.8496C34.848 31.1808 32.6824 31.1811 31.3514 29.8496Z" fill="#FFD8CB"/>
<path d="M53.9396 54.6302L35.8186 36.5095L10.4034 61.9226C8.66419 63.6622 8.66419 66.4809 10.4034 68.2205C11.273 69.09 12.4125 69.5248 13.552 69.5248C14.6916 69.5248 15.8312 69.09 16.701 68.2205L35.8176 49.1039L44.4927 57.779L39.9231 62.3489C38.1838 64.088 38.1838 66.9078 39.9231 68.6463C41.662 70.3859 44.4817 70.3854 46.2209 68.6463L53.9397 60.9279C55.6782 59.1889 55.6782 56.3691 53.9396 54.6302Z" fill="#5F6C75"/>
</g>
</svg>
